<svg xmlns="http://www.w3.org/2000/svg" viewBox="0 0 64 64" width="64" height="64">
  <rect x="0" y="0" width="64" height="64" rx="14" fill="#FFD23D"></rect>
  <path d="M32 8 C 17 8, 8 18, 8 30 C 8 42, 17 50, 28 51 L 26 58 C 25.5 60, 27.5 61, 29 59.5 L 39 51 C 51 49, 56 41, 56 30 C 56 18, 47 8, 32 8 Z" fill="#FF3D8E" stroke="#1B1B3A" stroke-width="3" stroke-linejoin="round"></path>
  <ellipse cx="20" cy="22" rx="6" ry="3.5" fill="rgba(255,255,255,0.4)" transform="rotate(-22 20 22)"></ellipse>
  <ellipse cx="24" cy="30" rx="2.4" ry="3.4" fill="#1B1B3A"></ellipse>
  <ellipse cx="40" cy="30" rx="2.4" ry="3.4" fill="#1B1B3A"></ellipse>
  <ellipse cx="18" cy="38" rx="3" ry="1.7" fill="#FF8FB8"></ellipse>
  <ellipse cx="46" cy="38" rx="3" ry="1.7" fill="#FF8FB8"></ellipse>
  <path d="M26 40 q6 6 12 0" stroke="#1B1B3A" stroke-width="2.5" fill="none" stroke-linecap="round"></path>
</svg>
