<svg xmlns="http://www.w3.org/2000/svg" viewBox="0 0 1600 1600" width="1600" height="1600"><defs><linearGradient id="bg" x1="0" y1="0" x2="1" y2="1" gradientTransform="rotate(142,0.5,0.5)"><stop offset="0" stop-color="#1c0e14"/><stop offset="1" stop-color="#33141e"/></linearGradient><radialGradient id="glow" cx="54.7%" cy="54.7%" r="55%"><stop offset="0" stop-color="#ffd166" stop-opacity="0.12"/><stop offset="1" stop-color="#ffd166" stop-opacity="0"/></radialGradient><radialGradient id="vignette" cx="50%" cy="50%" r="72%"><stop offset="0.55" stop-color="#1c0e14" stop-opacity="0"/><stop offset="1" stop-color="#1c0e14" stop-opacity="0.5"/></radialGradient></defs><rect width="1600" height="1600" fill="url(#bg)"/><rect width="1600" height="1600" fill="url(#glow)"/><polyline points="1258,713 1252,702 1247,692 1241,681 1235,670 1230,660 1224,649 1219,639 1213,628 1207,617 1202,607 1196,596 1191,585 1185,575 1180,564 1174,553 1169,543 1163,532 1158,521 1152,511 1147,500 1141,489 1136,479 1130,468 1125,458" fill="none" stroke="#9d2235" stroke-width="7.5" stroke-opacity="1.00" stroke-linecap="round"/><polyline points="253,765 255,753 257,741 258,729 258,717 257,705 255,694 252,682 249,670 245,659 240,648 236,637 230,626 225,615 219,605 213,594 207,584 201,574 195,564 188,554 182,543 175,533 168,523 162,513 155,503 148,493 142,483 135,474 128,464 122,454 115,444 108,434 102,424 95,414" fill="none" stroke="#9d2235" stroke-width="8.3" stroke-opacity="0.78" stroke-linecap="round"/><polyline points="7,980 19,982 31,983 43,983 55,982 67,981 79,978 90,975 101,971 112,966 123,960 133,954 143,947 153,940 162,932 171,924" fill="none" stroke="#f47f5e" stroke-width="17.8" stroke-opacity="1.00" stroke-linecap="round"/><polyline points="177,1610 167,1618 158,1625 149,1633 140,1641 130,1648 121,1656 112,1664 103,1672 94,1680" fill="none" stroke="#f47f5e" stroke-width="10.1" stroke-opacity="1.00" stroke-linecap="round"/><polyline points="1221,1348 1231,1342 1241,1336 1252,1330 1262,1324 1272,1318 1283,1311 1293,1305 1303,1299 1313,1292 1323,1286 1333,1279 1343,1273 1353,1266 1363,1259 1373,1252 1382,1244 1392,1237 1401,1229 1410,1221 1419,1213 1428,1205 1436,1197 1444,1188 1452,1179 1460,1170 1467,1160 1474,1151 1481,1141 1488,1131 1494,1120 1500,1110 1505,1099 1510,1088" fill="none" stroke="#ffb4a2" stroke-width="14.1" stroke-opacity="0.83" stroke-linecap="round"/><polyline points="1441,705 1441,693 1441,681 1441,669 1441,657 1441,645 1441,633 1441,621 1442,609 1442,597 1443,585 1444,573 1445,561 1446,549 1447,537 1448,526 1449,514 1451,502" fill="none" stroke="#9d2235" stroke-width="8.8" stroke-opacity="0.69" stroke-linecap="round"/><polyline points="894,442 889,431 883,421 877,410 871,400 864,390 857,381 850,371 842,362 833,354 825,345 816,337 806,330 796,323 786,317 776,311 765,305 754,300 743,296 732,292 720,288 709,285 697,283 685,281 673,279 661,278 649,277 637,276 625,276 613,276 601,277 589,277 578,278 566,279 554,280 542,281" fill="none" stroke="#ffb4a2" stroke-width="20.5" stroke-opacity="0.96" stroke-linecap="round"/><polyline points="1338,382 1334,370 1329,360 1323,349 1318,338 1312,328 1305,318 1298,308 1291,299 1283,289 1275,280 1267,272 1258,263 1249,255 1240,247 1231,240 1222,232 1212,225 1202,218 1192,212 1182,205 1172,199 1162,192 1152,186 1141,180 1131,174 1120,168 1110,163 1099,157 1088,152 1078,146 1067,141" fill="none" stroke="#9d2235" stroke-width="7.2" stroke-opacity="1.00" stroke-linecap="round"/><polyline points="463,142 451,141 439,139 427,137 416,134 404,130 393,127 382,122 371,117 361,111 351,104 341,97 333,88 325,79 318,70 312,59 307,48 304,37 302,25 303,13 305,1 309,-10 315,-21 321,-31 328,-41 336,-50 344,-59 353,-67 361,-76" fill="none" stroke="#e63946" stroke-width="17.1" stroke-opacity="0.65" stroke-linecap="round"/><polyline points="528,1255 518,1260 507,1266 496,1272 486,1277 476,1284 466,1290 456,1297 446,1303 436,1310 426,1318 417,1325 408,1333 398,1340 389,1348 380,1356 372,1364 363,1373 355,1381 346,1390 338,1398 330,1407 321,1416 313,1425 305,1434 298,1443 290,1452 282,1461 274,1470 266,1479 258,1488 251,1498" fill="none" stroke="#f9dcc4" stroke-width="11.7" stroke-opacity="0.81" stroke-linecap="round"/><polyline points="302,193 291,187 281,181 272,173 263,165 255,157 247,147 241,137 235,127 231,115 228,104 226,92 227,80 229,68 233,57 238,46 244,36 251,26 259,17 268,8" fill="none" stroke="#e63946" stroke-width="7.5" stroke-opacity="0.75" stroke-linecap="round"/><polyline points="421,1643 428,1633 435,1624 442,1614 448,1604 454,1593 460,1582 464,1571 468,1560 472,1549 474,1537 475,1525 475,1513 472,1501 468,1490 462,1480 453,1472 442,1466 431,1462 419,1461 407,1461 395,1462 383,1464 372,1468" fill="none" stroke="#f47f5e" stroke-width="8.2" stroke-opacity="0.87" stroke-linecap="round"/><polyline points="514,1661 522,1653 531,1644 539,1636 547,1627 555,1618 563,1608 570,1599 577,1589 583,1578 589,1568 594,1557 599,1546 603,1535 607,1524 609,1512 611,1500 612,1488 612,1476 610,1464 608,1453 603,1441 597,1431 589,1422 580,1414 570,1408 559,1403 547,1400 535,1397 524,1396 512,1395 500,1396 488,1397 476,1399 464,1401 452,1404 441,1407 429,1411 418,1416 407,1420 396,1425" fill="none" stroke="#e63946" stroke-width="20.0" stroke-opacity="0.95" stroke-linecap="round"/><polyline points="163,1558 156,1568 150,1578 143,1588 136,1598 129,1607 122,1617 114,1626 107,1636 99,1645 92,1654 84,1664 76,1673" fill="none" stroke="#ffb4a2" stroke-width="10.7" stroke-opacity="0.78" stroke-linecap="round"/><polyline points="892,1409 894,1397 894,1385 894,1373 893,1361 891,1349 887,1338 883,1327 876,1316 869,1307 859,1300 849,1294 837,1291 825,1290 813,1290 801,1291 789,1293 778,1295 766,1298 754,1301 743,1304 731,1307 719,1310 708,1313 696,1316 685,1319 673,1322 661,1324 649,1327 638,1329 626,1331" fill="none" stroke="#f9dcc4" stroke-width="38.1" stroke-opacity="0.55" stroke-linecap="round"/><polyline points="757,345 746,339 735,334 725,329 713,324 702,320 691,317 679,314 667,312 655,310 643,308 632,307 620,306 608,306 596,305 584,305 572,306 560,306 548,307 536,308 524,308 512,309 500,310 488,311 476,312 464,313 452,314 440,314 428,315 416,315 404,315" fill="none" stroke="#9d2235" stroke-width="12.1" stroke-opacity="0.87" stroke-linecap="round"/><polyline points="979,391 973,381 967,371 960,361 953,351 946,341 939,332 931,322 923,314 914,305 906,297 897,289 888,281 878,274 868,267 858,260 848,254 837,249 826,243 815,239 804,234 793,230 781,227 770,224 758,221 746,219 734,217 722,216 710,215 698,214 686,214 674,214 662,214 650,215 638,215 627,216 615,217 603,218 591,220" fill="none" stroke="#f47f5e" stroke-width="10.4" stroke-opacity="0.74" stroke-linecap="round"/><polyline points="550,262 538,263 526,264 514,266 502,267 490,268 478,269 466,270 454,271 442,272 430,273 418,273 406,273 394,273 382,272 370,271 358,270 346,268 335,266 323,263 311,260 300,256 289,252 278,247 267,242 257,236 247,229 237,222 228,214 219,206" fill="none" stroke="#9d2235" stroke-width="18.6" stroke-opacity="0.74" stroke-linecap="round"/><polyline points="596,827 600,816 604,804 608,793 611,782 615,770 618,759 621,747 623,735 624,723 625,711 625,699 624,687 622,675 620,664 616,652 612,641 607,630 601,619 595,609 588,600 580,590 572,582 563,574 554,566 544,559" fill="none" stroke="#ffb4a2" stroke-width="12.3" stroke-opacity="0.85" stroke-linecap="round"/><polyline points="207,106 208,94 210,82 214,71 219,60 226,50 233,41 241,32 249,23 258,15 267,7 276,-1 285,-9 294,-17 303,-25 312,-33 321,-41 330,-49 339,-57 348,-65 357,-73" fill="none" stroke="#e63946" stroke-width="18.1" stroke-opacity="0.67" stroke-linecap="round"/><polyline points="586,1570 591,1559 596,1548 601,1537 604,1526 607,1514 609,1502 610,1490 610,1478 609,1467 606,1455 602,1444 596,1433 588,1424 580,1416 569,1409 559,1404 547,1401 535,1398 524,1397 512,1396 500,1396 488,1397 476,1399 464,1401 452,1404 441,1408 429,1411 418,1416" fill="none" stroke="#9d2235" stroke-width="8.3" stroke-opacity="0.73" stroke-linecap="round"/><polyline points="707,1127 695,1131 684,1134 673,1138 661,1141 650,1145 638,1148 626,1151 615,1154 603,1157 592,1160 580,1163 568,1166 557,1169 545,1172 534,1176 522,1180 511,1184 500,1188 489,1193 478,1197 467,1203 456,1208 446,1214 435,1220 425,1227 415,1233 406,1240 396,1248 387,1256 378,1263 369,1272 361,1280 352,1289 344,1297 336,1307 329,1316" fill="none" stroke="#f9dcc4" stroke-width="21.5" stroke-opacity="0.73" stroke-linecap="round"/><polyline points="938,437 933,426 927,416 922,405 916,395 909,385 903,375 896,365 888,355 881,346 873,337 864,329 855,321 846,313 837,305 827,298 817,292 807,286 796,280 785,275 774,271 763,267 751,263 740,260 728,257 716,255 704,253 692,252 680,251 668,250 656,249 644,249 632,250 621,250 609,251 597,252 585,253" fill="none" stroke="#e63946" stroke-width="9.4" stroke-opacity="0.89" stroke-linecap="round"/><polyline points="877,102 865,100 853,97 841,95 830,93 818,91 806,90 794,89 782,88 770,87 758,87 746,87 734,87 722,87 710,87 698,88 686,88 674,89 662,89 650,90" fill="none" stroke="#e63946" stroke-width="17.3" stroke-opacity="0.96" stroke-linecap="round"/><polyline points="11,1057 23,1054 34,1050 45,1045 56,1040 67,1034 77,1028 87,1021 96,1014 106,1006 115,998 123,990 132,981 140,973 148,964 156,955 164,946 172,937 180,928" fill="none" stroke="#ffb4a2" stroke-width="9.5" stroke-opacity="1.00" stroke-linecap="round"/><polyline points="774,999 763,995 752,989 742,983 732,976 723,968 715,960 707,950 701,940 696,929 692,918 688,906 686,895 684,883 684,871 683,859 683,847 684,835 684,823 685,811 686,799 687,787 688,775 688,763 689,751 689,739 690,727 689,715 689,703 689,691 688,679 686,667 684,655 682,643 679,632 676,620" fill="none" stroke="#ffb4a2" stroke-width="9.4" stroke-opacity="0.88" stroke-linecap="round"/><polyline points="1555,254 1556,242 1556,230 1556,218 1555,206 1554,194 1551,183 1549,171 1545,160 1540,148 1535,138 1529,127 1522,118 1515,108 1506,100 1497,91 1488,84" fill="none" stroke="#f9dcc4" stroke-width="8.8" stroke-opacity="0.79" stroke-linecap="round"/><polyline points="898,-48 886,-51 874,-54 863,-57 851,-60 839,-63 828,-65 816,-68 804,-71 792,-74 781,-76 769,-79" fill="none" stroke="#e63946" stroke-width="32.3" stroke-opacity="0.54" stroke-linecap="round"/><polyline points="195,1666 183,1664 171,1664 159,1666 148,1670 137,1675 126,1680" fill="none" stroke="#f47f5e" stroke-width="18.4" stroke-opacity="0.85" stroke-linecap="round"/><polyline points="1128,658 1122,648 1116,638 1110,628 1104,617 1098,607 1092,596 1086,586 1081,575 1075,564 1070,554 1065,543 1060,532 1055,521 1050,510 1045,499 1040,488 1035,477 1030,466 1025,456 1020,445 1014,434 1009,423 1003,413 998,402 992,391 986,381 979,371 973,361 966,351 959,341 952,332 944,323 936,314 928,305 919,296 910,288 901,280 892,273 882,266 872,259 862,253 852,247" fill="none" stroke="#f47f5e" stroke-width="12.2" stroke-opacity="1.00" stroke-linecap="round"/><polyline points="1235,305 1227,296 1219,288 1210,279 1202,271 1193,263 1184,255 1175,247 1165,240 1156,233 1146,225 1136,218 1126,212 1117,205 1107,198 1096,192 1086,185 1076,179 1066,173 1055,167 1045,161 1034,156 1023,150 1013,145 1002,140 991,134 980,130 969,125 958,120 947,116 935,112 924,108 913,105 901,101 890,98 878,95 866,93 854,90 843,88 831,86 819,85 807,83" fill="none" stroke="#f47f5e" stroke-width="10.5" stroke-opacity="0.76" stroke-linecap="round"/><polyline points="1363,811 1361,799 1358,788 1355,776 1351,765 1348,753 1345,741 1341,730 1338,718 1335,707 1331,695 1328,684 1324,672 1321,661 1317,650 1313,638 1310,627 1306,615 1302,604 1299,592 1295,581 1291,570 1287,558 1283,547 1279,536 1275,525 1270,513 1266,502 1261,491 1257,480 1252,469 1247,458 1241,447 1236,437 1231,426 1225,415 1219,405 1213,395 1206,385 1200,375" fill="none" stroke="#ffb4a2" stroke-width="9.1" stroke-opacity="0.89" stroke-linecap="round"/><polyline points="-13,1462 -18,1473 -23,1484 -28,1495 -32,1506 -37,1517 -41,1528 -46,1539 -50,1550 -55,1562 -59,1573 -64,1584 -68,1595 -73,1606 -78,1617" fill="none" stroke="#e63946" stroke-width="10.8" stroke-opacity="1.00" stroke-linecap="round"/><polyline points="426,223 414,222 402,222 390,220 378,219 367,217 355,214 343,211 332,207 321,203 310,198 299,193 289,186 279,180 270,172 261,164 253,155 245,146 239,136 234,125 230,113 227,102 226,90 227,78 229,66 233,55 239,44 245,34 253,25 261,16 269,7" fill="none" stroke="#e63946" stroke-width="8.5" stroke-opacity="1.00" stroke-linecap="round"/><polyline points="68,876 80,877 92,878 104,878 116,878 128,876 139,874 151,870 162,866 173,861 183,855 193,848 203,841 212,833 220,824 228,815 234,805 240,795 246,784 250,773 253,761 256,749 257,738 258,726 257,714 256,702" fill="none" stroke="#e63946" stroke-width="10.2" stroke-opacity="0.85" stroke-linecap="round"/><polyline points="164,1511 158,1521 153,1532 148,1543 142,1553 136,1564 131,1575 125,1585 118,1595 112,1605 106,1616 99,1626 92,1635 85,1645 78,1655 71,1664 63,1674" fill="none" stroke="#9d2235" stroke-width="8.8" stroke-opacity="0.92" stroke-linecap="round"/><polyline points="883,1062 871,1062 859,1064 847,1066 835,1069 824,1072 812,1076 801,1080 789,1084 778,1088 767,1091 755,1095 744,1099 733,1103 721,1106 710,1109 698,1113 686,1115 675,1118 663,1120 651,1122 639,1124 627,1126" fill="none" stroke="#ffb4a2" stroke-width="10.1" stroke-opacity="0.85" stroke-linecap="round"/><polyline points="1612,1015 1614,1004 1615,992 1617,980 1618,968 1619,956 1619,944 1620,932 1620,920 1620,908 1621,896 1621,884 1621,872 1621,860 1621,848 1621,836 1621,824 1621,812 1621,800 1621,788 1622,776 1622,764 1623,752 1624,740 1625,728 1626,716 1627,704 1629,692 1631,680 1633,669" fill="none" stroke="#e63946" stroke-width="32.3" stroke-opacity="0.49" stroke-linecap="round"/><polyline points="892,1052 881,1051 869,1050 857,1050 845,1051 833,1052 821,1053 809,1055 797,1057 785,1059 773,1061 761,1062 749,1064 738,1065 726,1066 714,1066 702,1066 690,1065 678,1063 666,1061 654,1059 643,1056" fill="none" stroke="#ffd166" stroke-width="9.7" stroke-opacity="0.73" stroke-linecap="round"/><polyline points="1673,788 1672,776 1672,764 1672,752 1672,740 1672,728 1673,716 1673,704 1674,692 1676,680 1677,668 1679,656" fill="none" stroke="#ffb4a2" stroke-width="10.0" stroke-opacity="0.84" stroke-linecap="round"/><polyline points="984,735 977,725 971,715 964,705 958,694 952,684 947,673 941,663 936,652 931,641 926,630 922,619 917,608 913,596 909,585 905,574 902,562 898,551 894,539 891,528 887,517 883,505 879,494 874,483 870,472 865,461 860,450 854,439 848,429 842,419 836,409 828,399 821,390 813,381 805,372 796,364" fill="none" stroke="#ffb4a2" stroke-width="37.9" stroke-opacity="0.53" stroke-linecap="round"/><polyline points="548,125 536,126 524,126 512,126 500,126 488,125 476,124 465,123 453,121 441,118 429,115 418,112 407,108 396,103 385,98 375,91 365,84 356,77 347,68 339,59 333,49 327,38 323,27 321,15 320,3 321,-8 324,-20 329,-31 335,-41 342,-51 349,-61 357,-70 365,-79" fill="none" stroke="#ffb4a2" stroke-width="10.7" stroke-opacity="0.68" stroke-linecap="round"/><polyline points="236,77 237,65 241,54 245,43 251,32 258,23 266,13 274,4 282,-4 291,-12 300,-21 308,-29 317,-37 326,-45 335,-53 344,-61 353,-69 362,-77" fill="none" stroke="#e63946" stroke-width="9.9" stroke-opacity="0.81" stroke-linecap="round"/><polyline points="-32,1649 -37,1660 -42,1671" fill="none" stroke="#e63946" stroke-width="12.2" stroke-opacity="0.94" stroke-linecap="round"/><polyline points="1207,278 1199,270 1190,262 1181,254 1171,247 1162,239 1153,232 1143,225 1133,218 1123,211 1113,204 1103,198 1093,191 1083,185 1073,179 1062,172 1052,167 1041,161 1031,155 1020,150 1009,144 999,139 988,134 977,129 966,124 955,120 943,116" fill="none" stroke="#9d2235" stroke-width="11.3" stroke-opacity="0.66" stroke-linecap="round"/><polyline points="1003,1365 1006,1353 1010,1342 1012,1330 1014,1318 1015,1306 1016,1294 1016,1282 1014,1270 1013,1258 1010,1247 1006,1235 1001,1224 995,1214 989,1204 981,1195 972,1187 962,1180 952,1174 940,1171 928,1169 916,1169 904,1171 893,1174 882,1179 871,1184 860,1189 850,1196 840,1202 830,1208" fill="none" stroke="#f9dcc4" stroke-width="14.8" stroke-opacity="1.00" stroke-linecap="round"/><polyline points="1366,362 1362,351 1357,340 1352,329 1346,318 1340,308 1334,298 1327,288 1320,278 1312,269 1304,260 1295,252 1286,244 1277,236 1268,228 1258,221 1249,214" fill="none" stroke="#f47f5e" stroke-width="12.3" stroke-opacity="0.73" stroke-linecap="round"/><polyline points="263,1511 254,1519 246,1527 237,1536 228,1544 220,1552 211,1561 203,1569 194,1577 185,1586 177,1594 168,1603 160,1611 151,1619 142,1628 134,1636 125,1644 116,1653 108,1661 99,1669 90,1677" fill="none" stroke="#f9dcc4" stroke-width="9.5" stroke-opacity="0.89" stroke-linecap="round"/><polyline points="37,1548 33,1559 29,1571 25,1582 21,1593 17,1605 13,1616 8,1627 4,1638 -1,1649 -6,1660 -12,1670" fill="none" stroke="#f9dcc4" stroke-width="11.4" stroke-opacity="1.00" stroke-linecap="round"/><polyline points="293,1008 282,1003 272,998 261,991 252,984 244,975 237,965 233,954 230,942 229,930 230,918 231,907 234,895 237,883 241,872 245,861 249,849 253,838 256,826 260,815 263,803 265,792 268,780 269,768 270,756 270,744 269,732 268,720 266,708 263,697 260,685 256,674 252,663 247,652 242,641 236,630 230,619 224,609 218,599 212,588 206,578 199,568" fill="none" stroke="#9d2235" stroke-width="11.6" stroke-opacity="0.88" stroke-linecap="round"/><polyline points="1377,170 1367,163 1357,157 1346,150 1336,145 1325,140 1314,135 1303,130 1292,126 1281,121 1269,117 1258,114 1246,110 1235,106 1224,103 1212,99 1201,96 1189,92 1178,89 1166,85 1155,81 1143,78 1132,74 1120,71 1109,67 1098,63 1086,59 1075,56 1063,52 1052,48 1041,44 1029,41 1018,37 1006,34 995,30 983,26 972,23 960,20 949,17 937,13 926,10 914,8" fill="none" stroke="#ffb4a2" stroke-width="12.5" stroke-opacity="1.00" stroke-linecap="round"/><polyline points="249,362 238,358 227,353 217,347 206,341 196,335 186,328 177,320 167,313 159,305 150,296 142,287 134,278 127,268 121,258 115,248 109,237 104,226 100,215 97,204 94,192 93,180 92,168 93,156 95,144 99,133 104,122 110,111 117,102 125,93 134,85 144,78 154,71" fill="none" stroke="#9d2235" stroke-width="8.3" stroke-opacity="0.80" stroke-linecap="round"/><polyline points="747,462 740,453 732,444 723,435 714,427 705,420 695,413 685,407 675,401 664,395 653,391 642,387 630,383 619,380 607,377 595,375 583,373 571,371 559,370 547,369 535,369 523,369" fill="none" stroke="#9d2235" stroke-width="12.3" stroke-opacity="1.00" stroke-linecap="round"/><polyline points="743,-27 731,-28 719,-30 707,-31 695,-33 684,-35 672,-37 660,-39 648,-42 637,-45 625,-48 614,-52 602,-56 591,-60 581,-66 570,-71 560,-78" fill="none" stroke="#f9dcc4" stroke-width="15.3" stroke-opacity="0.92" stroke-linecap="round"/><polyline points="198,1516 192,1526 185,1536 179,1546 172,1556 165,1566 158,1576 151,1585 144,1595 137,1605 130,1614 122,1623 115,1633 107,1642 99,1651 91,1660 83,1669 75,1678" fill="none" stroke="#f47f5e" stroke-width="9.5" stroke-opacity="1.00" stroke-linecap="round"/><polyline points="397,1280 388,1288 379,1297 371,1305 362,1314 354,1322 346,1331 338,1340 331,1350 323,1359 316,1368 308,1378 301,1388 294,1397 287,1407 280,1417 274,1427 267,1437 260,1447 253,1457 247,1467 240,1476 233,1486 226,1496 220,1506 213,1516 206,1526 199,1536 192,1545 184,1555 177,1564 170,1574 163,1583 155,1593 147,1602 140,1611 132,1620 124,1630 116,1639 108,1647 100,1656" fill="none" stroke="#f9dcc4" stroke-width="10.6" stroke-opacity="0.76" stroke-linecap="round"/><polyline points="98,396 91,386 84,376 78,366 71,356 64,346 58,336 51,326 45,316 39,306 33,296 27,285 21,275 15,264 10,253 4,243 -1,232 -6,221 -10,210 -15,199 -19,187" fill="none" stroke="#f47f5e" stroke-width="12.8" stroke-opacity="0.93" stroke-linecap="round"/><polyline points="1115,1483 1126,1479 1138,1476 1149,1474 1161,1471 1173,1469 1185,1467 1197,1465 1208,1463 1220,1462 1232,1460 1244,1459 1256,1458 1268,1457 1280,1457 1292,1456 1304,1455 1316,1454 1328,1453 1340,1452 1352,1451 1364,1450 1376,1448 1388,1446 1399,1444 1411,1442 1423,1439 1434,1436 1446,1433 1457,1429 1469,1425" fill="none" stroke="#f9dcc4" stroke-width="8.3" stroke-opacity="0.67" stroke-linecap="round"/><polyline points="375,1085 363,1087 351,1089 340,1091 328,1094 316,1096 304,1099 293,1102 281,1105 270,1108 258,1111 246,1114 235,1118 223,1121 212,1124 200,1127 188,1130 177,1132 165,1134 153,1136 141,1137 129,1138" fill="none" stroke="#f9dcc4" stroke-width="12.5" stroke-opacity="1.00" stroke-linecap="round"/><polyline points="985,391 978,381 972,370 965,360 959,350 951,341 944,331 936,322 928,313 920,305 911,296 903,288 893,280 884,273 874,266 864,260 854,253 843,248 833,242 822,237 810,233 799,229 788,225 776,222 764,219 753,217 741,215 729,214 717,213 705,212 693,211 681,211 669,211" fill="none" stroke="#e63946" stroke-width="11.3" stroke-opacity="0.98" stroke-linecap="round"/><polyline points="1197,1146 1197,1134 1196,1122 1194,1110 1192,1098 1190,1087 1186,1075 1182,1064 1178,1053 1173,1042 1168,1031 1162,1021 1155,1010 1149,1000 1141,991 1134,981 1126,972 1118,963 1110,954 1102,945 1094,937 1086,928 1077,920" fill="none" stroke="#ffb4a2" stroke-width="9.0" stroke-opacity="0.93" stroke-linecap="round"/><polyline points="1039,-24 1027,-28 1016,-32 1004,-35 993,-39 981,-42 970,-46 958,-49 947,-53 935,-56 924,-59 912,-63 901,-66 889,-69 878,-73 866,-76 855,-79" fill="none" stroke="#f9dcc4" stroke-width="9.0" stroke-opacity="0.93" stroke-linecap="round"/><polyline points="12,936 23,939 35,942 47,943 59,944 71,944 83,943 95,941 106,939 118,935 129,931 140,926 151,920 161,914 171,907 180,900 189,892 197,883 205,874 213,865 220,856 227,846 234,836 240,825 245,814 250,803 254,792 258,781 260,769 262,757 263,745 264,733 263,721 262,709 259,698 257,686 253,674 249,663 245,652 240,641 234,630 229,620 223,609 217,599 211,588" fill="none" stroke="#ffb4a2" stroke-width="21.3" stroke-opacity="0.87" stroke-linecap="round"/><polyline points="-34,679 -22,682 -10,685 1,688 13,691 25,694 36,696 48,699 60,700 72,702 84,703 96,703 108,703 120,701 131,699 143,696 154,691 164,685 174,677 181,668 187,658 191,646 193,635 193,623 192,611 189,599 186,587 182,576 178,565 173,554 168,543 162,532 157,522 151,511 145,501 139,491" fill="none" stroke="#f9dcc4" stroke-width="9.2" stroke-opacity="0.98" stroke-linecap="round"/><polyline points="1647,684 1649,672 1651,660 1653,649 1656,637 1659,625 1662,614 1666,602 1670,591 1674,580 1678,568" fill="none" stroke="#9d2235" stroke-width="12.5" stroke-opacity="1.00" stroke-linecap="round"/><polyline points="1295,1156 1299,1145 1303,1134 1307,1122 1310,1111 1312,1099 1314,1087 1316,1075 1317,1064 1318,1052 1319,1040 1319,1028 1318,1016 1317,1004 1316,992 1314,980 1312,968 1309,956 1306,945 1303,933 1300,922 1296,910 1291,899 1287,888 1282,877 1277,866 1272,855 1266,845 1261,834" fill="none" stroke="#f9dcc4" stroke-width="8.6" stroke-opacity="0.95" stroke-linecap="round"/><polyline points="1007,1596 1019,1594 1030,1591 1042,1589 1054,1588 1066,1586 1078,1585 1090,1585 1102,1584 1114,1584 1126,1584 1138,1585 1150,1585 1162,1586 1174,1587 1186,1588 1198,1590 1210,1591 1222,1592 1234,1593 1246,1594 1258,1595 1270,1596 1281,1596 1293,1597 1305,1596 1317,1596 1329,1595 1341,1594 1353,1592 1365,1590 1377,1588 1388,1585 1400,1582 1411,1578 1423,1574 1434,1569 1445,1564 1456,1559 1466,1554 1477,1548 1487,1542" fill="none" stroke="#f47f5e" stroke-width="8.6" stroke-opacity="0.68" stroke-linecap="round"/><polyline points="1541,6 1530,1 1519,-4 1507,-8 1496,-11 1484,-14 1472,-16 1460,-17 1448,-19 1436,-20 1424,-20 1412,-21 1400,-21 1388,-21 1376,-21" fill="none" stroke="#e63946" stroke-width="10.7" stroke-opacity="1.00" stroke-linecap="round"/><polyline points="843,1426 844,1414 844,1402 842,1390 840,1378 836,1367 830,1356 823,1346 815,1338 805,1332 794,1327 782,1324 770,1323 758,1322 746,1323 734,1323 722,1325 710,1326 698,1328 687,1329 675,1331 663,1333 651,1335 639,1336 627,1338 615,1340 603,1342 592,1343" fill="none" stroke="#9d2235" stroke-width="15.8" stroke-opacity="0.96" stroke-linecap="round"/><polyline points="596,1537 600,1526 603,1514 605,1502 606,1490 605,1478 604,1467 601,1455 597,1444 591,1433 583,1424 574,1416 564,1410 553,1405 541,1402 530,1399 518,1398 506,1398 494,1398 482,1399 470,1401 458,1404 446,1407 435,1410 424,1414 413,1419 402,1424 391,1429 380,1435 370,1440 359,1447 349,1453 339,1460 329,1466" fill="none" stroke="#f9dcc4" stroke-width="7.5" stroke-opacity="1.00" stroke-linecap="round"/><polyline points="746,495 739,485 732,475 724,466 716,457 708,449 699,441 690,433 680,426 670,420 659,414 648,409 637,404 626,400 614,397 603,393 591,391 579,389 567,387 556,385 544,384 532,383 520,382 508,382 496,382 484,381 472,381 460,381" fill="none" stroke="#9d2235" stroke-width="15.8" stroke-opacity="0.95" stroke-linecap="round"/><polyline points="-77,1221 -70,1211 -62,1202 -54,1193 -47,1184 -39,1175 -31,1166 -22,1157 -14,1148 -6,1139 2,1131 10,1122 19,1113 27,1104 35,1096 43,1087 51,1078 59,1069 67,1060 76,1052 84,1043 92,1034 100,1025 108,1016 116,1007" fill="none" stroke="#f47f5e" stroke-width="8.7" stroke-opacity="1.00" stroke-linecap="round"/><polyline points="1556,182 1553,171 1550,159 1546,148 1541,137 1535,127 1528,117 1521,107 1513,98 1504,90 1495,82 1485,76 1475,69 1464,64 1453,59 1442,54 1431,50" fill="none" stroke="#9d2235" stroke-width="9.5" stroke-opacity="1.00" stroke-linecap="round"/><polyline points="478,142 466,141 454,140 442,138 430,136 419,134 407,130 396,127 385,122 374,117 363,111 353,105 344,97 335,89 327,80 319,71" fill="none" stroke="#9d2235" stroke-width="21.7" stroke-opacity="0.76" stroke-linecap="round"/><polyline points="614,1501 615,1489 614,1477 613,1465 610,1453 606,1442 600,1432 592,1423 583,1415 573,1408 563,1403 551,1399 539,1397 528,1395 516,1395 504,1395 492,1396 480,1397 468,1399" fill="none" stroke="#f47f5e" stroke-width="10.8" stroke-opacity="0.86" stroke-linecap="round"/><polyline points="627,399 615,395 604,392 592,389 580,387 569,385 557,384 545,383 533,382 521,381 509,381 497,380 485,380 473,380 461,380 449,380 437,380 425,380 413,380 401,379 389,379 377,378 365,378 353,376 341,375 329,374 317,372 305,369 294,367 282,364 271,360 259,356 248,352 237,347 226,342 216,336 205,330 195,324 186,317 176,309 167,301 158,293" fill="none" stroke="#f9dcc4" stroke-width="15.9" stroke-opacity="1.00" stroke-linecap="round"/><polyline points="1439,1048 1443,1037 1446,1025 1448,1014 1451,1002 1453,990 1455,978 1456,966 1457,954 1458,942 1459,930 1460,918 1460,906 1460,894 1460,882 1460,870 1460,858 1460,846 1460,834 1459,822 1459,810 1459,798 1458,786 1458,774 1458,762" fill="none" stroke="#ffd166" stroke-width="10.6" stroke-opacity="0.71" stroke-linecap="round"/><polyline points="1668,12 1662,1 1655,-9 1648,-18 1639,-27 1630,-35 1621,-42 1611,-49 1600,-54 1589,-59 1578,-63 1566,-67 1555,-69 1543,-72 1531,-73 1519,-74 1507,-75 1495,-75" fill="none" stroke="#f9dcc4" stroke-width="12.8" stroke-opacity="0.97" stroke-linecap="round"/><polyline points="967,226 958,219 948,212 937,206 927,200 916,194 906,189 895,184 884,179 873,175 861,171 850,167 838,164 827,161 815,158 803,156 791,154 779,152 768,151 756,150 744,150 732,149 720,149 708,149 696,150 684,150" fill="none" stroke="#ffd166" stroke-width="8.0" stroke-opacity="0.91" stroke-linecap="round"/><polyline points="1265,1674 1277,1673 1289,1672 1301,1670 1313,1668 1324,1666 1336,1663 1347,1660 1359,1656 1370,1652 1381,1647 1392,1642 1403,1637 1414,1632 1424,1626 1435,1620 1445,1614 1455,1607 1465,1600 1475,1593 1484,1586 1494,1579 1503,1571 1512,1563 1521,1556 1530,1548 1539,1540 1548,1531 1557,1523" fill="none" stroke="#9d2235" stroke-width="8.3" stroke-opacity="1.00" stroke-linecap="round"/><polyline points="455,669 446,661 437,653 428,645 418,638 408,632 398,625 388,619 377,613 367,607 356,601 346,595 335,590 325,584 314,578 303,573 293,567 283,561" fill="none" stroke="#f9dcc4" stroke-width="11.6" stroke-opacity="0.90" stroke-linecap="round"/><polyline points="126,844 138,843 150,840 161,837 172,833 183,828 194,822 203,815 213,807 221,798 228,789 235,779 240,768 245,757 248,746 251,734 252,722 252,710 251,698 249,686 246,674 243,663" fill="none" stroke="#ffb4a2" stroke-width="10.1" stroke-opacity="0.79" stroke-linecap="round"/><polyline points="864,498 860,487 855,476 851,465 845,454 840,443 834,433 827,423 821,413 813,403 806,394 798,385 789,377 780,369 771,361 761,354 751,348 740,342 730,337 719,332 708,327 696,323 685,320" fill="none" stroke="#f9dcc4" stroke-width="15.3" stroke-opacity="0.89" stroke-linecap="round"/><polyline points="732,104 720,104 708,104 696,105 684,105 672,106 660,107 648,108 636,109 624,110 612,111 600,112 588,113 576,114 564,114 552,115 540,115 528,115 516,115 504,114 492,114" fill="none" stroke="#f9dcc4" stroke-width="10.8" stroke-opacity="0.69" stroke-linecap="round"/><polyline points="1088,1649 1100,1650 1112,1651 1124,1652 1136,1653 1148,1655 1160,1656 1172,1657 1184,1659 1196,1660 1208,1661 1220,1662 1232,1662 1244,1663 1256,1663 1268,1663 1280,1662 1292,1661 1303,1659 1315,1658 1327,1655 1339,1653 1350,1650 1362,1646 1373,1642 1384,1638 1395,1633 1406,1628 1417,1623 1428,1617 1438,1611" fill="none" stroke="#f9dcc4" stroke-width="8.4" stroke-opacity="0.69" stroke-linecap="round"/><polyline points="873,1617 883,1610 893,1604 903,1598 914,1592 924,1586 935,1580 945,1574 956,1568 966,1563 977,1558 988,1552 999,1547 1010,1543 1021,1538 1032,1534 1043,1530 1055,1526 1066,1522 1078,1519 1089,1516 1101,1513 1113,1510 1125,1508 1136,1506 1148,1505 1160,1503 1172,1502 1184,1501 1196,1501 1208,1500 1220,1500 1232,1500 1244,1500 1256,1500 1268,1500 1280,1500 1292,1501 1304,1501 1316,1500 1328,1500" fill="none" stroke="#9d2235" stroke-width="9.7" stroke-opacity="0.87" stroke-linecap="round"/><polyline points="493,209 481,210 469,210 457,211 445,211 433,211 421,210 409,209 397,208 385,207 374,204 362,202 350,199 339,195 328,190 317,185 306,180 296,173 286,166 277,159 268,150 261,141 254,132 248,121 243,110 239,99 237,87 237,75 239,63" fill="none" stroke="#ffb4a2" stroke-width="11.5" stroke-opacity="0.87" stroke-linecap="round"/><polyline points="-66,1126 -54,1125 -43,1122 -31,1119 -20,1115 -9,1110 2,1104 12,1098 22,1092 32,1085 41,1077 51,1070 60,1062 68,1053 77,1045 86,1037 94,1028 102,1020 110,1011 119,1002 127,993 135,984 142,975 150,966 158,957 166,947 173,938 180,929 188,919 195,909 202,900 209,890 215,880 222,870 228,859 234,849 240,838 245,827 250,816" fill="none" stroke="#e63946" stroke-width="9.7" stroke-opacity="1.00" stroke-linecap="round"/><polyline points="407,561 396,557 385,553 374,549 362,545 351,541 340,537 328,533 317,528 306,524 295,519 284,515 273,510 262,505 251,499 241,493 230,487 220,481 210,475 200,468 191,461 181,453" fill="none" stroke="#f47f5e" stroke-width="11.7" stroke-opacity="1.00" stroke-linecap="round"/><polyline points="716,1211 706,1218 695,1224 685,1230 675,1236 664,1242 653,1247 643,1253 632,1258 621,1263 610,1268 599,1273 588,1278 577,1283 566,1287 555,1292 544,1297 533,1302 522,1307 512,1312 501,1317 490,1323 480,1328 469,1334 459,1340 448,1346 438,1353 428,1359 418,1366 408,1373 398,1380 389,1387" fill="none" stroke="#ffb4a2" stroke-width="7.5" stroke-opacity="0.98" stroke-linecap="round"/><polyline points="407,10 400,1 393,-10 388,-20 384,-32 381,-43 381,-55 382,-67 385,-79" fill="none" stroke="#9d2235" stroke-width="9.3" stroke-opacity="0.67" stroke-linecap="round"/><polyline points="1594,324 1599,313 1604,303 1610,292 1615,281 1620,270 1625,259 1630,248 1634,237 1639,226 1643,215 1647,204 1651,192 1655,181 1658,169 1660,158 1663,146 1664,134 1666,122 1666,110 1666,98 1665,86 1664,74 1661,62 1658,51 1654,40 1649,29 1643,18 1636,8 1628,-1 1620,-10 1611,-18 1602,-25 1591,-31 1581,-37 1570,-42" fill="none" stroke="#9d2235" stroke-width="28.1" stroke-opacity="0.52" stroke-linecap="round"/><polyline points="502,325 490,326 478,327 466,327 454,328 442,329 430,329 418,330 406,330 394,330 382,329 370,329 358,328 347,327 335,325 323,323 311,321 299,318 288,315 276,312 265,307 254,303 243,298 232,292 222,286 212,279 203,272 193,264 185,256 176,248 169,238 161,229 155,219 149,208 144,197 140,186" fill="none" stroke="#9d2235" stroke-width="9.1" stroke-opacity="0.88" stroke-linecap="round"/><polyline points="89,399 82,389 75,379 69,369 62,359 56,348 49,338 43,328 36,318 30,308 24,297 18,287 12,277 6,266 0,256 -6,245" fill="none" stroke="#f47f5e" stroke-width="9.1" stroke-opacity="0.88" stroke-linecap="round"/><polyline points="1103,1611 1115,1611 1127,1612 1139,1613 1151,1614 1163,1615 1175,1617 1187,1618 1198,1619 1210,1621 1222,1622 1234,1623 1246,1624 1258,1625 1270,1625 1282,1625 1294,1625 1306,1624 1318,1623 1330,1622 1342,1620 1354,1618 1365,1615 1377,1612 1388,1608" fill="none" stroke="#e63946" stroke-width="38.5" stroke-opacity="0.49" stroke-linecap="round"/><polyline points="1230,43 1218,41 1207,38 1195,36 1183,34 1171,31 1160,29 1148,26 1136,23 1125,20 1113,17 1101,14 1090,11 1078,7 1067,4 1055,1 1044,-3 1032,-6 1021,-10 1009,-13 998,-17 986,-20 975,-24 963,-27 952,-30 940,-33" fill="none" stroke="#f9dcc4" stroke-width="7.3" stroke-opacity="1.00" stroke-linecap="round"/><polyline points="1644,104 1642,92 1639,80 1636,69 1631,58 1626,47 1620,37 1613,27 1605,18 1597,9 1588,1 1578,-6 1568,-12 1557,-17 1546,-22 1535,-26 1523,-29 1511,-32" fill="none" stroke="#ffb4a2" stroke-width="8.8" stroke-opacity="0.76" stroke-linecap="round"/><polyline points="906,-53 894,-57 882,-60 871,-63 859,-66 848,-69 836,-71 824,-74 813,-77" fill="none" stroke="#ffb4a2" stroke-width="11.7" stroke-opacity="0.95" stroke-linecap="round"/><polyline points="1405,1368 1417,1365 1428,1361 1439,1357 1450,1352 1461,1347 1472,1342 1483,1337 1494,1331 1504,1325 1514,1319 1524,1312 1534,1305 1543,1298 1553,1291 1562,1283 1571,1275 1579,1266 1587,1257 1595,1248 1603,1239 1610,1230 1618,1220" fill="none" stroke="#f9dcc4" stroke-width="7.8" stroke-opacity="0.73" stroke-linecap="round"/><polyline points="1556,314 1559,303 1562,291 1565,279 1567,268 1569,256 1571,244 1572,232 1573,220 1573,208 1573,196 1572,184 1570,172 1568,160 1565,149 1561,137 1556,126 1550,116 1544,106 1537,96 1529,87 1520,79 1511,71 1501,64 1491,58 1480,52 1469,47 1458,43 1447,39 1435,35 1424,33 1412,30 1400,28 1388,26 1376,25 1364,23 1352,22 1341,21 1329,20 1317,19 1305,18 1293,17" fill="none" stroke="#f9dcc4" stroke-width="20.4" stroke-opacity="0.88" stroke-linecap="round"/><polyline points="1572,1614 1578,1603 1583,1593 1589,1582 1595,1572 1601,1561 1608,1551 1614,1541 1620,1531 1627,1521 1633,1511 1640,1501 1646,1491 1653,1481 1660,1471 1666,1461 1673,1451 1679,1440" fill="none" stroke="#ffd166" stroke-width="15.0" stroke-opacity="1.00" stroke-linecap="round"/><polyline points="1390,-2 1378,-3 1366,-4 1354,-4 1342,-5 1330,-5 1318,-5 1306,-6 1294,-6 1282,-7 1270,-8 1258,-8 1246,-9 1234,-11 1222,-12 1211,-13 1199,-15 1187,-17 1175,-19 1163,-21 1151,-23 1140,-26 1128,-29 1116,-31" fill="none" stroke="#f9dcc4" stroke-width="16.6" stroke-opacity="0.91" stroke-linecap="round"/><polyline points="482,1438 471,1434 459,1433 447,1433 435,1434 423,1436 411,1438 400,1442 389,1446 377,1450 367,1456 356,1461 345,1467 335,1473 325,1479 315,1486 305,1492 295,1499 285,1507 276,1514 267,1521 257,1529 248,1537 239,1544 230,1552 221,1560 212,1568 203,1576 194,1584 185,1592 176,1600 167,1608 159,1616 150,1625 141,1633 132,1641 123,1649 114,1657 105,1665 97,1673" fill="none" stroke="#f9dcc4" stroke-width="8.0" stroke-opacity="1.00" stroke-linecap="round"/><polyline points="883,655 878,644 874,633 870,622 866,610 862,599 859,587 855,576 852,564 848,553 845,541 841,530 837,519 833,507 829,496 824,485 819,474 813,464 807,453 801,443 794,433 787,424 779,414 771,405 763,397 754,389 744,382 734,375 724,369" fill="none" stroke="#f47f5e" stroke-width="11.3" stroke-opacity="0.87" stroke-linecap="round"/><polyline points="96,352 89,342 82,333 75,323 69,312 62,302 56,292 50,281 45,271 39,260 34,249 30,238 25,227 21,216 18,204 15,192 13,181 11,169 11,157 11,145 12,133 15,121 19,110 24,99 31,89 39,80 48,73 58,66 69,61 80,57 92,54 104,51 115,49 127,47 139,45 151,43 163,41 175,39 186,36 198,33 209,29 220,25 231,20 242,15" fill="none" stroke="#e63946" stroke-width="12.3" stroke-opacity="0.74" stroke-linecap="round"/><polyline points="590,-60 579,-65 569,-71 559,-78" fill="none" stroke="#e63946" stroke-width="10.5" stroke-opacity="0.70" stroke-linecap="round"/><polyline points="1189,770 1182,761 1175,751 1168,741 1161,732 1154,722 1147,712 1140,702 1133,693 1127,683 1120,673 1113,663 1107,652 1101,642 1095,632 1089,621 1083,611 1077,600 1072,590 1066,579 1061,568 1056,557 1050,547 1045,536 1041,525 1036,514 1031,503 1026,492 1021,481 1016,470 1011,459 1006,448 1001,437 996,426 990,416 985,405 979,395 973,384 967,374 960,364 953,354 946,344 939,335" fill="none" stroke="#f9dcc4" stroke-width="11.3" stroke-opacity="1.00" stroke-linecap="round"/><polyline points="1114,458 1109,448 1103,437 1097,427 1091,416 1085,406 1079,396 1073,385 1066,375 1060,365 1053,355 1046,346 1039,336 1032,327 1024,317 1016,308 1008,299 1000,290" fill="none" stroke="#ffd166" stroke-width="7.5" stroke-opacity="0.90" stroke-linecap="round"/><polyline points="1385,986 1385,974 1385,962 1385,950 1384,938 1383,926 1382,914 1380,902 1379,890 1377,878 1375,866 1373,855 1370,843 1368,831 1365,819 1362,808 1359,796 1356,784 1353,773 1350,761 1347,750 1343,738 1340,727 1337,715 1333,704 1330,692 1326,681 1322,669 1319,658 1315,646 1312,635 1308,624 1304,612 1300,601 1297,589 1293,578" fill="none" stroke="#e63946" stroke-width="11.8" stroke-opacity="0.99" stroke-linecap="round"/><polyline points="494,1435 483,1431 471,1429 459,1428 447,1429 435,1430 423,1432 412,1436 400,1439 389,1443 378,1448 367,1453 357,1459 346,1465 336,1471 326,1477 316,1484 306,1491 296,1498 286,1505 277,1512 268,1520 258,1527 249,1535 240,1543 231,1551 222,1559 213,1567 204,1575 195,1583 186,1591 177,1599 169,1607 160,1615 151,1623 142,1631 133,1640 124,1648 116,1656" fill="none" stroke="#ffb4a2" stroke-width="12.0" stroke-opacity="0.90" stroke-linecap="round"/><rect width="1600" height="1600" fill="url(#vignette)"/></svg>